<svg xmlns="http://www.w3.org/2000/svg" xmlns:xlink="http://www.w3.org/1999/xlink" width="452" height="207" viewBox="0 0 452 207">
  <defs>
    <clipPath id="clip-path">
      <rect id="Rectangle_97" data-name="Rectangle 97" width="452" height="207" transform="translate(24 918.617)" fill="#fff" stroke="#707070" stroke-width="1"/>
    </clipPath>
  </defs>
  <g id="Mask_Group_1" data-name="Mask Group 1" transform="translate(-24 -918.617)" clip-path="url(#clip-path)">
    <path id="Union_2" data-name="Union 2" d="M0,248.569C0,111.61,111.611,0,248.576,0,385.388,0,497,111.61,497,248.569c0,137.111-111.612,248.569-248.424,248.569C111.611,497.138,0,385.68,0,248.569Zm33.454,0c0,118.511,96.76,215.269,215.122,215.269S463.1,367.08,463.1,248.569c0-118.358-96.161-214.514-214.522-214.514S33.454,130.211,33.454,248.569Zm32.4,68.856c26.1-30.9,66.909-92.855,66.909-92.855l9.3,46.953,21.753-64.355,21.6,11.854,39.154-57.907-9.451,105.458,38.553-35.853,30.3,89.408s-5.551-117.459-3.6-115.51c1.8,1.952,51.455,77.557,51.455,77.557l25.8-15.6,11.7,7.5s21,31.652,36.007,53.851c4.948,7.649,9.3,13.8,12.447,18.151-34.2,58.205-97.358,97.958-169.215,97.958C164.867,444.033,93.61,391.231,65.858,317.425Zm-12.3-68.706C53.554,141.46,140.86,54,248.721,54,355.832,54,443.44,141.46,443.44,248.719c0,8.1,0,15.45-1.5,22.951h-1.2c-4.351-1.2-14.4-13.65-18.451-12.3-2.1.45-9.3,4.8-11.4,3.6-12.3-11.251-12.748-21.9-21.6-35.4s-22.954-26.551-34.8-37.8c-9.9-9.3-13.652-30.452-28.506-28.052-4.2.75-16.2,14.852-19.8,16.8h-.6c-1.651-1.8-3-3.751-4.951-5.55-5.551-6.3-10.5-13.051-15.3-19.2-6.9-9.451-14.852-17.4-23.1-25.5-8.552-9.149-19.653-15.45-28.505-24.753-2.4-3-8.551-2.4-10.35,1.8-12.6,22.952-34.8,50.854-55.955,67.056-24.75,18-47.105,22.8-63.306,36-19.052,15.452-30.3,42.153-44.555,62.558-1.2,1.8-2.4,3.9-4.2,6.3A218.15,218.15,0,0,1,53.554,248.719Z" transform="translate(184 897.617)" fill="#f1f1f1" stroke="rgba(0,0,0,0)" stroke-width="1"/>
  </g>
</svg>
