<svg xmlns="http://www.w3.org/2000/svg" xmlns:xlink="http://www.w3.org/1999/xlink" width="489" height="353" viewBox="0 0 489 353">
  <defs>
    <clipPath id="clip-path">
      <rect id="Rectangle_186" data-name="Rectangle 186" width="489" height="353" transform="translate(160 918.988)" fill="#422270" stroke="#707070" stroke-width="1"/>
    </clipPath>
  </defs>
  <g id="LogoIcon" transform="translate(-160 -918.988)" opacity="0.16" clip-path="url(#clip-path)">
    <path id="Union_5" data-name="Union 5" d="M0,261.382C0,117.363,117.364,0,261.389,0c143.864,0,261.23,117.363,261.23,261.382,0,144.179-117.366,261.382-261.23,261.382C117.364,522.764,0,405.56,0,261.382Zm35.178,0c0,124.62,101.748,226.366,226.211,226.366S486.969,386,486.969,261.382c0-124.459-101.118-225.572-225.58-225.572S35.178,136.923,35.178,261.382Zm34.075,72.406c27.447-32.5,70.358-97.642,70.358-97.642l9.779,49.373,22.874-67.673,22.714,12.465,41.172-60.892-9.938,110.894,40.541-37.7,31.866,94.016s-5.837-123.514-3.785-121.465c1.892,2.053,54.107,81.554,54.107,81.554l27.132-16.4,12.3,7.887s22.085,33.284,37.863,56.627c5.2,8.043,9.777,14.513,13.088,19.087C403.362,425.12,336.95,466.922,261.389,466.922,173.366,466.922,98.436,411.4,69.253,333.788ZM56.314,261.54c0-112.788,91.807-204.755,205.228-204.755,112.632,0,204.756,91.967,204.756,204.755,0,8.518,0,16.247-1.576,24.134H463.46c-4.576-1.261-15.145-14.354-19.4-12.934-2.209.473-9.782,5.047-11.991,3.785-12.932-11.831-13.405-23.034-22.714-37.227s-24.137-27.92-36.6-39.752c-10.411-9.778-14.356-32.022-29.975-29.5-4.411.789-17.031,15.617-20.819,17.667h-.629c-1.736-1.892-3.155-3.944-5.206-5.836-5.838-6.625-11.041-13.724-16.09-20.193-7.258-9.938-15.618-18.3-24.292-26.816-8.993-9.621-20.666-16.247-29.975-26.028-2.521-3.154-8.991-2.523-10.883,1.893-13.249,24.135-36.6,53.475-58.839,70.512-26.026,18.932-49.534,23.979-66.57,37.861-20.034,16.248-31.867,44.326-46.852,65.783-1.262,1.893-2.526,4.1-4.417,6.623A229.4,229.4,0,0,1,56.314,261.54Z" transform="translate(110.229 918.617)" fill="#422270" stroke="rgba(0,0,0,0)" stroke-width="1"/>
  </g>
</svg>
