<svg id="Trustpilot_Logo__2022_" data-name="Trustpilot_Logo_(2022)" xmlns="http://www.w3.org/2000/svg" width="103.639" height="25.448" viewBox="0 0 103.639 25.448">
  <path id="Path_857" data-name="Path 857" d="M297.609,98.6H308.1v1.958h-4.125v11h-2.269v-11H297.6V98.6Zm10.044,3.577h1.939v1.811h.037a2.129,2.129,0,0,1,.357-.741,3.3,3.3,0,0,1,.631-.659,3.363,3.363,0,0,1,.823-.485,2.519,2.519,0,0,1,.924-.183c.238,0,.412.009.5.018s.183.027.284.037v1.994c-.146-.027-.293-.046-.448-.064a3.8,3.8,0,0,0-.448-.027,2.424,2.424,0,0,0-.988.21,2.277,2.277,0,0,0-.8.613,3.113,3.113,0,0,0-.549,1.006,4.264,4.264,0,0,0-.2,1.381v4.464h-2.067v-9.376Zm15,9.385h-2.031v-1.308h-.037a2.82,2.82,0,0,1-1.134,1.134,3.1,3.1,0,0,1-1.537.43,3.442,3.442,0,0,1-2.68-.915,4.046,4.046,0,0,1-.823-2.772v-5.955h2.067v5.754a2.528,2.528,0,0,0,.476,1.747,1.722,1.722,0,0,0,1.326.512,2.543,2.543,0,0,0,1.089-.2,1.836,1.836,0,0,0,.7-.54,2.071,2.071,0,0,0,.393-.8,3.964,3.964,0,0,0,.119-1.015v-5.443h2.067Zm3.522-3.009a1.592,1.592,0,0,0,.686,1.271,2.768,2.768,0,0,0,1.436.366,6.142,6.142,0,0,0,.659-.046,2.765,2.765,0,0,0,.7-.174,1.337,1.337,0,0,0,.54-.375.91.91,0,0,0,.192-.64.884.884,0,0,0-.293-.649,2.06,2.06,0,0,0-.7-.412,6.976,6.976,0,0,0-.97-.265c-.366-.073-.732-.156-1.107-.238a10.5,10.5,0,0,1-1.116-.311,3.407,3.407,0,0,1-.96-.494,2.172,2.172,0,0,1-.677-.787,2.46,2.46,0,0,1-.256-1.189,2.143,2.143,0,0,1,.375-1.281,2.844,2.844,0,0,1,.942-.832,4.367,4.367,0,0,1,1.271-.448,7.74,7.74,0,0,1,1.336-.128,6.227,6.227,0,0,1,1.39.156,3.584,3.584,0,0,1,1.2.5,2.963,2.963,0,0,1,.887.9,3.121,3.121,0,0,1,.448,1.336H330a1.287,1.287,0,0,0-.677-1,2.773,2.773,0,0,0-1.226-.256,3.849,3.849,0,0,0-.521.037,2.854,2.854,0,0,0-.567.137,1.23,1.23,0,0,0-.448.293.707.707,0,0,0-.183.5.782.782,0,0,0,.265.613,2.219,2.219,0,0,0,.686.393,6.979,6.979,0,0,0,.97.265c.366.073.741.156,1.125.238s.741.192,1.107.311a3.341,3.341,0,0,1,.97.494,2.435,2.435,0,0,1,.686.778,2.371,2.371,0,0,1,.265,1.162,2.527,2.527,0,0,1-.384,1.418,3.041,3.041,0,0,1-.988.942,4.645,4.645,0,0,1-1.354.531,6.793,6.793,0,0,1-1.473.165,6.248,6.248,0,0,1-1.647-.2,4.009,4.009,0,0,1-1.308-.6,2.994,2.994,0,0,1-.869-1.015,3.333,3.333,0,0,1-.338-1.445h2.086ZM333,102.177h1.564V99.359h2.067v2.817H338.5v1.546h-1.866v5.013a5.1,5.1,0,0,0,.027.567,1.043,1.043,0,0,0,.128.4.587.587,0,0,0,.3.247,1.474,1.474,0,0,0,.549.082c.146,0,.293,0,.439-.009a2.423,2.423,0,0,0,.439-.064v1.6c-.229.027-.457.046-.668.073a5.346,5.346,0,0,1-.668.037,4.627,4.627,0,0,1-1.317-.155,1.709,1.709,0,0,1-.778-.457,1.587,1.587,0,0,1-.384-.75,5.638,5.638,0,0,1-.119-1.034v-5.534h-1.564v-1.564Zm6.961,0h1.958v1.271h.037a2.554,2.554,0,0,1,1.217-1.171,4.009,4.009,0,0,1,1.692-.357,4.38,4.38,0,0,1,1.93.393,3.773,3.773,0,0,1,1.372,1.07,4.684,4.684,0,0,1,.814,1.592,6.67,6.67,0,0,1,.274,1.939,6.742,6.742,0,0,1-.247,1.829,4.9,4.9,0,0,1-.741,1.573A3.638,3.638,0,0,1,347,111.406a3.744,3.744,0,0,1-1.8.412,5.053,5.053,0,0,1-.906-.082,3.986,3.986,0,0,1-.869-.265,3.138,3.138,0,0,1-.768-.467,2.9,2.9,0,0,1-.595-.659h-.037v4.683h-2.067Zm7.226,4.7a4.671,4.671,0,0,0-.165-1.235,3.33,3.33,0,0,0-.494-1.061,2.517,2.517,0,0,0-.814-.741,2.513,2.513,0,0,0-3.092.622,4.018,4.018,0,0,0-.659,2.415,4.635,4.635,0,0,0,.174,1.317,2.941,2.941,0,0,0,.521,1.043,2.468,2.468,0,0,0,.823.686,2.58,2.58,0,0,0,2.314-.037,2.531,2.531,0,0,0,.8-.75,3.117,3.117,0,0,0,.457-1.052,5.88,5.88,0,0,0,.128-1.207Zm3.65-8.278H352.9v1.958h-2.067Zm0,3.577H352.9v9.385h-2.067Zm3.915-3.577h2.067v12.962h-2.067Zm8.406,13.218a5.113,5.113,0,0,1-2-.375,4.2,4.2,0,0,1-2.415-2.589,6.037,6.037,0,0,1-.32-1.994,5.966,5.966,0,0,1,.32-1.976,4.46,4.46,0,0,1,.924-1.564,4.213,4.213,0,0,1,1.491-1.025,5.538,5.538,0,0,1,4.007,0,4.2,4.2,0,0,1,2.415,2.589,5.966,5.966,0,0,1,.32,1.976,6.037,6.037,0,0,1-.32,1.994,4.46,4.46,0,0,1-.924,1.564,4.213,4.213,0,0,1-1.491,1.024,5.113,5.113,0,0,1-2,.375Zm0-1.637a2.4,2.4,0,0,0,1.2-.293,2.55,2.55,0,0,0,.832-.759,3.407,3.407,0,0,0,.485-1.061,4.73,4.73,0,0,0,0-2.406,3.129,3.129,0,0,0-.485-1.061,2.523,2.523,0,0,0-.832-.75,2.6,2.6,0,0,0-2.4,0,2.626,2.626,0,0,0-.832.75,3.315,3.315,0,0,0-.485,1.061,4.73,4.73,0,0,0,0,2.406,3.213,3.213,0,0,0,.485,1.061,2.55,2.55,0,0,0,.832.759A2.306,2.306,0,0,0,363.159,110.181Zm5.342-8h1.564V99.359h2.067v2.817H374v1.546h-1.866v5.013a5.117,5.117,0,0,0,.027.567,1.042,1.042,0,0,0,.128.4.587.587,0,0,0,.3.247,1.474,1.474,0,0,0,.549.082c.146,0,.293,0,.439-.009a2.423,2.423,0,0,0,.439-.064v1.6c-.229.027-.457.046-.668.073a5.348,5.348,0,0,1-.668.037,4.627,4.627,0,0,1-1.317-.156,1.709,1.709,0,0,1-.777-.457,1.587,1.587,0,0,1-.384-.75,5.638,5.638,0,0,1-.119-1.034v-5.534h-1.564v-1.564Z" transform="translate(-270.378 -89.581)" fill="#191919"/>
  <path id="Path_858" data-name="Path 858" d="M24.817,9.019H15.34L12.413,0,9.477,9.019,0,9.01l7.675,5.58L4.738,23.6l7.675-5.571L20.078,23.6l-2.927-9.01Z" fill="#00b67a"/>
  <path id="Path_859" data-name="Path 859" d="M141.1,161.54l-.659-2.04-4.738,3.439Z" transform="translate(-123.287 -144.91)" fill="#005128"/>
</svg>
